<svg width="24" height="24" viewBox="0 0 24 24" fill="none" xmlns="http://www.w3.org/2000/svg">
<path d="M23.9997 12.2667C23.9997 11.2801 23.918 10.5601 23.7412 9.81342H12.2446V14.2667H18.9929C18.8569 15.3734 18.1222 17.0401 16.4895 18.16L16.4666 18.3091L20.1016 21.0688L20.3535 21.0934C22.6663 19.0001 23.9997 15.92 23.9997 12.2667Z" fill="#4285F4"/>
<path d="M12.245 24C15.551 24 18.3265 22.9333 20.3538 21.0933L16.4898 18.1599C15.4558 18.8666 14.068 19.3599 12.245 19.3599C9.00689 19.3599 6.25861 17.2666 5.27892 14.3733L5.13532 14.3853L1.35558 17.2519L1.30615 17.3866C3.31974 21.3066 7.4558 24 12.245 24Z" fill="#34A853"/>
<path d="M5.27886 14.3734C5.02036 13.6267 4.87076 12.8266 4.87076 12C4.87076 11.1733 5.02036 10.3733 5.26526 9.62668L5.25841 9.46766L1.43131 6.55493L1.30609 6.6133C0.476196 8.23999 0 10.0667 0 12C0 13.9333 0.476196 15.76 1.30609 17.3866L5.27886 14.3734Z" fill="#FBBC05"/>
<path d="M12.245 4.63997C14.5442 4.63997 16.0952 5.6133 16.9796 6.42669L20.4354 3.12C18.313 1.18667 15.551 0 12.245 0C7.4558 0 3.31974 2.69331 1.30615 6.61328L5.26532 9.62666C6.25861 6.73333 9.00689 4.63997 12.245 4.63997Z" fill="#EB4335"/>
</svg>
