<svg width="200" height="260" viewBox="0 0 200 260" fill="none" xmlns="http://www.w3.org/2000/svg">
<g clip-path="url(#clip0)">
<path d="M58.9863 97.4195L3.16094 85.3771L2.43544 85.2209C2.06598 85.1407 1.68138 85.1664 1.32586 85.295C0.970342 85.4236 0.658339 85.6499 0.425736 85.948C0.193133 86.246 0.0493694 86.6037 0.0109877 86.9798C-0.0273939 87.3559 0.0411683 87.7352 0.208773 88.0741L22.3737 133.086C22.5172 133.375 22.728 133.626 22.9885 133.816C23.2489 134.007 23.5514 134.132 23.8704 134.182C24.1904 134.231 24.5177 134.203 24.8241 134.098C25.1304 133.993 25.4066 133.814 25.6287 133.579L41.024 117.346C41.1335 117.227 41.2663 117.133 41.4141 117.068C41.5619 117.004 41.7215 116.971 41.8828 116.971C42.102 116.968 42.3179 117.024 42.5074 117.134C42.6969 117.245 42.853 117.404 42.9587 117.596L46.1121 123.429C46.3134 123.818 46.639 124.128 47.0371 124.311C47.4352 124.493 47.8829 124.537 48.3089 124.436L48.3246 124.432C48.7558 124.341 49.1437 124.107 49.4261 123.769C49.7085 123.43 49.8688 123.007 49.8814 122.566L50.5131 109.102C50.5206 108.934 50.5625 108.77 50.6363 108.619C50.7155 108.469 50.823 108.336 50.9529 108.228L59.8345 100.937C60.1264 100.697 60.3449 100.38 60.465 100.022C60.585 99.6642 60.6017 99.2795 60.5132 98.9124C60.4247 98.5452 60.2345 98.2104 59.9644 97.9464C59.6944 97.6823 59.3554 97.4997 58.9863 97.4195H58.9863ZM59.3273 100.317L50.4457 107.608C50.3299 107.701 50.2251 107.807 50.133 107.924L3.06005 86.5755C3.01853 86.5562 2.97522 86.541 2.93073 86.5301C2.74917 86.4833 2.55695 86.5014 2.38733 86.5814C2.21772 86.6613 2.08136 86.798 2.00185 86.9678C1.92234 87.1376 1.90467 87.3298 1.9519 87.5113C1.99913 87.6927 2.1083 87.852 2.26051 87.9615L40.965 116.393C40.7686 116.495 40.5913 116.63 40.4408 116.792L25.0458 133.025C24.9122 133.166 24.7466 133.272 24.5632 133.335C24.3798 133.398 24.1839 133.415 23.9921 133.386C23.8004 133.357 23.6185 133.282 23.4619 133.168C23.3053 133.054 23.1786 132.903 23.0926 132.729L0.927682 87.7177C0.828593 87.5143 0.788616 87.2872 0.812314 87.0622C0.836011 86.8372 0.922424 86.6234 1.06171 86.4451C1.201 86.2668 1.38756 86.1313 1.60014 86.0539C1.81271 85.9765 2.04276 85.9603 2.26406 86.0073L3.00679 86.1678L58.8147 98.2059C59.0363 98.2539 59.2399 98.3633 59.4022 98.5216C59.5645 98.6799 59.679 98.8807 59.7325 99.101C59.7859 99.3213 59.7763 99.5523 59.7047 99.7674C59.633 99.9825 59.5022 100.173 59.3273 100.317Z" fill="#5FA2FF"/>
<path d="M70.8861 257.991C65.8786 256.639 59.7844 251.013 61.0891 243.282C61.7362 239.447 64.2197 236.965 66.7948 235.36C70.3567 233.14 74.4133 232.303 78.3226 232.092C82.8317 231.848 87.3358 232.462 91.8112 233.113C96.2294 233.754 100.648 234.329 105.086 234.68C122.451 236.042 139.923 234.745 156.897 230.833C161.087 229.866 165.251 228.732 169.39 227.43C173.312 226.276 177.147 224.842 180.865 223.141C185.786 220.779 193.789 216.181 193.137 207.667C192.791 203.152 190.132 199.547 187.45 197.035C184.208 193.997 180.456 191.999 176.781 190.058C159.688 181.031 142.561 172.111 125.451 163.139C121.458 161.045 117.438 159.007 113.563 156.553C109.934 154.255 106.323 151.586 103.403 147.896C100.853 144.673 98.5737 140.346 98.6541 135.509C98.7208 131.498 100.546 128.094 102.782 125.55C108.317 119.251 116.147 116.698 123.224 115.36C132.016 113.698 140.935 113.707 149.733 112.102C156.837 110.806 164.427 108.305 170.205 102.443C172.648 100.059 174.377 97.0385 175.195 93.7236C175.933 90.2517 175.574 86.6365 174.169 83.3771C172.604 79.639 170.107 76.6613 167.482 74.2229C164.467 71.4609 161.047 69.1762 157.341 67.4478C149.539 63.7296 141.334 61.7936 133.341 58.9402C129.421 57.5408 125.462 56.0063 121.822 53.6026C118.738 51.5662 115.379 48.8213 113.664 44.7394C110.124 36.3175 118.568 31.2981 123.353 29.3968C126.606 28.1633 129.955 27.2044 133.368 26.53C134.089 26.3751 133.783 24.9349 133.065 25.089C129.473 25.7893 125.953 26.8172 122.549 28.1598C119.663 29.3586 116.686 30.9341 114.42 33.6452C113.388 34.8693 112.625 36.2967 112.18 37.8348C111.736 39.3728 111.62 40.9872 111.84 42.573C112.44 46.6139 115.049 49.7276 117.5 51.9829C120.741 54.9652 124.437 56.9129 128.183 58.5006C132.129 60.1727 136.159 61.4758 140.187 62.7541C148.236 65.3082 156.647 67.5844 163.913 73.0195C168.996 76.8216 175.901 83.9502 174.211 92.7863C173.46 96.7087 171.181 99.7754 168.721 102.031C165.833 104.602 162.502 106.627 158.89 108.009C142.788 114.489 125.066 109.855 109.379 118.656C104.045 121.649 97.5664 127.097 97.5143 135.67C97.4872 140.124 99.2723 144.208 101.479 147.437C104.123 151.303 107.546 154.163 111.028 156.552C114.695 158.977 118.503 161.181 122.431 163.154C126.722 165.408 131.014 167.659 135.307 169.907L161.36 183.57L174.305 190.358C178.255 192.429 182.307 194.417 185.899 197.458C188.841 199.948 192.315 204.033 192.015 209.106C191.777 213.135 189.101 216.042 186.655 217.986C183.488 220.503 179.931 222.131 176.392 223.483C172.309 225.044 168.16 226.338 164.002 227.502C155.486 229.882 146.794 231.583 138.009 232.59C129.245 233.599 120.417 233.928 111.602 233.574C107.149 233.395 102.702 233.038 98.2622 232.505C93.6858 231.954 89.1289 231.105 84.5407 230.728C80.3905 230.387 76.2004 230.466 72.1133 231.562C68.7007 232.476 65.0954 234.106 62.5049 237.287C60.5956 239.715 59.6395 242.757 59.8165 245.841C59.9919 248.919 61.0891 251.873 62.9656 254.318C64.8717 256.816 67.5498 258.614 70.5835 259.432C71.2988 259.625 71.6048 258.185 70.8862 257.991L70.8861 257.991Z" fill="#E6E6E6"/>
<path d="M200 258.673H69.8922V259.573H200V258.673Z" fill="#3F3D56"/>
<path d="M189.576 216.291C194.27 216.291 198.075 212.485 198.075 207.791C198.075 203.097 194.27 199.292 189.576 199.292C184.882 199.292 181.076 203.097 181.076 207.791C181.076 212.485 184.882 216.291 189.576 216.291Z" fill="#E6E6E6"/>
<path d="M174.069 96.4935C178.763 96.4935 182.569 92.6881 182.569 87.994C182.569 83.2998 178.763 79.4944 174.069 79.4944C169.375 79.4944 165.57 83.2998 165.57 87.994C165.57 92.6881 169.375 96.4935 174.069 96.4935Z" fill="#E6E6E6"/>
<path d="M154.852 0.355546L131.252 10.6152C130.21 11.0698 129.39 11.9192 128.973 12.9772C128.556 14.0351 128.576 15.2153 129.028 16.2586L136.357 33.1161C136.811 34.1584 137.661 34.9779 138.719 35.3948C139.777 35.8116 140.957 35.7918 142 35.3396L165.601 25.0799C166.643 24.6254 167.463 23.7759 167.879 22.718C168.296 21.66 168.276 20.4799 167.824 19.4365L160.496 2.57902C160.041 1.53668 159.192 0.717196 158.134 0.300359C157.076 -0.116478 155.896 -0.0966304 154.852 0.355546ZM155.83 2.60321C155.971 2.54251 156.119 2.49984 156.271 2.47618L148.292 17.5303L131.903 13.0456C132.005 12.9738 132.115 12.9126 132.229 12.8629L155.83 2.60321ZM164.624 22.8322L141.023 33.0919C140.576 33.2857 140.07 33.2942 139.617 33.1156C139.163 32.9369 138.799 32.5857 138.604 32.139L131.342 15.4329L148.591 20.1534C148.86 20.2269 149.146 20.2067 149.401 20.0961C149.657 19.9856 149.867 19.7913 149.998 19.5453L158.349 3.78828L165.576 20.4136C165.77 20.8608 165.779 21.3665 165.6 21.8199C165.421 22.2734 165.07 22.6374 164.624 22.8322Z" fill="#E6E6E6"/>
<path d="M128.381 146.58C140.25 146.58 149.871 136.959 149.871 125.091C149.871 113.223 140.25 103.601 128.381 103.601C116.513 103.601 106.892 113.223 106.892 125.091C106.892 136.959 116.513 146.58 128.381 146.58Z" fill="#5FA2FF"/>
<path d="M124.995 258.938H119.069C118.377 258.937 117.714 258.662 117.224 258.173C116.735 257.683 116.46 257.02 116.459 256.328V206.935C116.46 206.243 116.735 205.579 117.224 205.09C117.714 204.601 118.377 204.326 119.069 204.325H124.995C125.687 204.326 126.351 204.601 126.84 205.09C127.329 205.579 127.605 206.243 127.605 206.935V256.328C127.605 257.02 127.329 257.683 126.84 258.173C126.351 258.662 125.687 258.937 124.995 258.938Z" fill="#2F2E41"/>
<path d="M136.717 258.938H130.791C130.099 258.937 129.435 258.662 128.946 258.173C128.457 257.683 128.181 257.02 128.181 256.328V206.935C128.181 206.243 128.457 205.579 128.946 205.09C129.435 204.601 130.099 204.326 130.791 204.325H136.717C137.409 204.326 138.072 204.601 138.562 205.09C139.051 205.579 139.326 206.243 139.327 206.935V256.328C139.326 257.02 139.051 257.683 138.562 258.173C138.072 258.662 137.409 258.937 136.717 258.938Z" fill="#2F2E41"/>
<path d="M161.276 201.77C161.015 201.769 160.756 201.73 160.508 201.654C160.179 201.554 159.874 201.391 159.61 201.172C159.346 200.954 159.127 200.685 158.967 200.382L135.813 156.752C135.653 156.449 135.553 156.118 135.52 155.776C135.488 155.435 135.523 155.091 135.623 154.763C135.724 154.436 135.888 154.131 136.106 153.867C136.324 153.602 136.592 153.384 136.895 153.223L142.13 150.445C142.433 150.284 142.764 150.185 143.105 150.152C143.446 150.119 143.791 150.154 144.118 150.255C144.446 150.355 144.751 150.519 145.015 150.737C145.28 150.956 145.498 151.224 145.659 151.527L168.813 195.157C168.973 195.46 169.073 195.791 169.105 196.132C169.138 196.474 169.103 196.818 169.003 197.146C168.902 197.473 168.738 197.778 168.52 198.042C168.302 198.306 168.033 198.525 167.731 198.686L162.496 201.464C162.12 201.664 161.701 201.769 161.276 201.77Z" fill="#5FA2FF"/>
<path d="M113.075 161.554C112.762 161.554 112.451 161.497 112.158 161.386H112.158L65.9511 143.931C65.6306 143.809 65.3371 143.626 65.0874 143.392C64.8378 143.157 64.6368 142.875 64.496 142.563C64.3552 142.251 64.2774 141.914 64.267 141.571C64.2565 141.229 64.3137 140.887 64.4352 140.567L66.5256 135.023C66.7723 134.376 67.2651 133.854 67.8961 133.569C68.5272 133.285 69.2451 133.262 69.8929 133.506L116.099 150.958C116.745 151.204 117.268 151.696 117.552 152.326C117.837 152.956 117.861 153.673 117.619 154.321L115.525 159.866C115.335 160.362 115 160.79 114.562 161.091C114.125 161.392 113.606 161.554 113.075 161.554Z" fill="#5FA2FF"/>
<path d="M141.601 150.314H114.674C113.343 150.314 112.264 151.392 112.264 152.723V209.931C112.264 211.261 113.343 212.34 114.674 212.34H141.601C142.931 212.34 144.01 211.261 144.01 209.931V152.723C144.01 151.392 142.931 150.314 141.601 150.314Z" fill="#2F2E41"/>
<path d="M144.254 104.046C145.517 106.817 146.725 110.166 145.366 113.13C144.868 114.327 143.932 115.29 142.75 115.823C141.349 116.382 139.822 116.063 138.525 115.388C135.792 113.966 134.03 111.323 131.59 109.512C130.479 108.647 129.166 108.081 127.774 107.868C126.171 107.659 124.579 108.037 123.011 108.329C121.343 108.639 119.619 108.803 118.075 107.957C116.717 107.164 115.655 105.949 115.048 104.498C114.73 103.793 113.691 104.404 114.008 105.106C115.32 108.02 118.035 110.005 121.296 109.776C123.022 109.654 124.689 109.097 126.418 109.017C127.995 108.965 129.541 109.46 130.795 110.417C133.474 112.326 135.293 115.259 138.366 116.646C139.816 117.301 141.477 117.573 143.006 117.01C144.324 116.497 145.423 115.54 146.112 114.304C148.129 110.832 146.834 106.817 145.294 103.438C144.973 102.734 143.935 103.346 144.254 104.046Z" fill="#2F2E41"/>
<path d="M130.757 132.266C129.43 132.229 127.778 132.182 126.505 131.253C126.126 130.965 125.815 130.597 125.593 130.176C125.371 129.755 125.244 129.29 125.22 128.815C125.197 128.477 125.253 128.138 125.382 127.825C125.512 127.512 125.712 127.233 125.967 127.01C126.631 126.449 127.602 126.317 128.649 126.625L127.565 118.704L128.361 118.595L129.635 127.906L128.97 127.602C128.201 127.248 127.143 127.068 126.486 127.624C126.324 127.769 126.199 127.949 126.118 128.151C126.038 128.352 126.005 128.57 126.023 128.786C126.042 129.14 126.138 129.486 126.303 129.799C126.468 130.113 126.698 130.388 126.979 130.604C127.969 131.328 129.286 131.421 130.78 131.463L130.757 132.266Z" fill="#2F2E41"/>
<path d="M123.63 119.387H119.305V120.19H123.63V119.387Z" fill="#2F2E41"/>
<path d="M137.282 119.387H132.957V120.19H137.282V119.387Z" fill="#2F2E41"/>
<path d="M112.229 161.199L93.2392 155.408C92.6469 155.228 92.147 154.826 91.843 154.287C91.539 153.747 91.4544 153.112 91.6068 152.511L93.8236 143.776C93.9112 143.431 94.0741 143.11 94.3007 142.835C94.5273 142.561 94.812 142.34 95.1342 142.189C95.4564 142.037 95.8081 141.959 96.1641 141.96C96.5201 141.961 96.8715 142.04 97.193 142.193L116.028 151.146C116.625 151.373 117.108 151.826 117.371 152.408C117.634 152.99 117.655 153.652 117.431 154.25L115.337 159.795C115.11 160.393 114.656 160.877 114.073 161.14C113.49 161.403 112.827 161.424 112.229 161.199Z" fill="#2F2E41"/>
<path d="M136.154 156.258L144.298 174.363C144.552 174.928 145.014 175.373 145.588 175.606C146.161 175.84 146.802 175.843 147.379 175.616L155.763 172.313C156.094 172.183 156.393 171.98 156.636 171.721C156.88 171.461 157.063 171.151 157.173 170.812C157.282 170.474 157.315 170.115 157.269 169.762C157.224 169.409 157.1 169.07 156.908 168.771L145.646 151.218C145.346 150.655 144.835 150.233 144.225 150.046C143.614 149.859 142.955 149.921 142.39 150.219L137.154 152.997C136.59 153.297 136.167 153.809 135.98 154.421C135.792 155.032 135.855 155.692 136.154 156.258Z" fill="#2F2E41"/>
<path d="M58.9863 97.4195L3.16094 85.3771L2.43544 85.2209C2.06598 85.1407 1.68138 85.1664 1.32586 85.295C0.970342 85.4236 0.658339 85.6499 0.425736 85.948C0.193133 86.246 0.0493694 86.6037 0.0109877 86.9798C-0.0273939 87.3559 0.0411683 87.7352 0.208773 88.0741L22.3737 133.086C22.5172 133.375 22.728 133.626 22.9885 133.816C23.2489 134.007 23.5514 134.132 23.8704 134.182C24.1904 134.231 24.5177 134.203 24.8241 134.098C25.1304 133.993 25.4066 133.814 25.6287 133.579L41.024 117.346C41.1335 117.227 41.2663 117.133 41.4141 117.068C41.5619 117.004 41.7215 116.971 41.8828 116.971C42.102 116.968 42.3179 117.024 42.5074 117.134C42.6969 117.245 42.853 117.404 42.9587 117.596L46.1121 123.429C46.3134 123.818 46.639 124.128 47.0371 124.311C47.4352 124.493 47.8829 124.537 48.3089 124.436L48.3246 124.432C48.7558 124.341 49.1437 124.107 49.4261 123.769C49.7085 123.43 49.8688 123.007 49.8814 122.566L50.5131 109.102C50.5206 108.934 50.5625 108.77 50.6363 108.619C50.7155 108.469 50.823 108.336 50.9529 108.228L59.8345 100.937C60.1264 100.697 60.3449 100.38 60.465 100.022C60.585 99.6642 60.6017 99.2795 60.5132 98.9124C60.4247 98.5452 60.2345 98.2104 59.9644 97.9464C59.6944 97.6823 59.3554 97.4997 58.9863 97.4195H58.9863ZM59.3273 100.317L50.4457 107.608C50.3299 107.701 50.2251 107.807 50.133 107.924C50.05 108.028 49.9784 108.14 49.9193 108.259C49.8573 108.381 49.8085 108.509 49.7736 108.641L49.7745 108.645C49.7377 108.782 49.7165 108.924 49.7112 109.066L49.0797 122.53C49.0744 122.795 48.9792 123.05 48.8097 123.253C48.6402 123.456 48.4065 123.596 48.1471 123.649L48.1392 123.651C47.8836 123.714 47.614 123.69 47.3742 123.581C47.1344 123.472 46.9383 123.285 46.8179 123.051L43.6637 117.214C43.5012 116.914 43.2646 116.66 42.9766 116.477C42.6885 116.294 42.3583 116.188 42.0175 116.168L42.0137 116.169C41.9678 116.167 41.9222 116.164 41.8774 116.166C41.5594 116.166 41.2462 116.244 40.9651 116.393C40.7686 116.495 40.5913 116.63 40.4409 116.792L25.0458 133.025C24.9122 133.166 24.7466 133.272 24.5632 133.335C24.3798 133.398 24.1839 133.415 23.9921 133.386C23.8004 133.357 23.6185 133.282 23.4619 133.168C23.3053 133.054 23.1786 132.903 23.0926 132.729L0.927682 87.7177C0.828593 87.5143 0.788616 87.2872 0.812314 87.0622C0.836011 86.8372 0.922424 86.6234 1.06171 86.4451C1.201 86.2668 1.38756 86.1313 1.60014 86.0539C1.81271 85.9765 2.04276 85.9603 2.26406 86.0073L3.00679 86.1678L58.8147 98.2059C59.0363 98.2539 59.2399 98.3633 59.4022 98.5216C59.5645 98.6799 59.679 98.8807 59.7325 99.101C59.7859 99.3213 59.7763 99.5523 59.7047 99.7674C59.633 99.9825 59.5022 100.173 59.3273 100.317Z" fill="#3F3D56"/>
<path d="M50.3111 108.004L49.9794 108.735L49.7744 108.645L49.7735 108.641L2.73784 87.313L42.0136 116.169L42.0175 116.168L42.1215 116.248L41.6479 116.895L40.965 116.393L2.26044 87.9614C2.10823 87.852 1.99907 87.6927 1.95183 87.5113C1.9046 87.3298 1.92227 87.1375 2.00178 86.9677C2.08129 86.7979 2.21765 86.6612 2.38727 86.5813C2.55688 86.5014 2.7491 86.4833 2.93067 86.5301C2.97515 86.5409 3.01846 86.5561 3.05998 86.5755L50.133 107.924L50.3111 108.004Z" fill="#3F3D56"/>
</g>
<defs>
<clipPath id="clip0">
<rect width="200" height="259.573" fill="white"/>
</clipPath>
</defs>
</svg>
