<svg width="104" height="136" viewBox="0 0 104 136" fill="none" xmlns="http://www.w3.org/2000/svg">
<path d="M51.7943 0C27.65 0 7.96826 19.6815 7.96826 43.826V68.2622C7.96826 70.4937 9.72112 72.2463 11.9524 72.2463H27.8891C30.1206 72.2463 31.8732 70.4934 31.8732 68.2622V43.826C31.8732 32.8297 40.7977 23.9052 51.794 23.9052C62.7903 23.9052 71.7148 32.8297 71.7148 43.826V51.7942C71.7148 54.0257 73.4677 55.7783 75.6989 55.7783H91.6356C93.8671 55.7783 95.6197 54.0255 95.6197 51.7942V43.826C95.6203 19.6815 75.9385 0 51.7943 0Z" fill="#C8C6CD"/>
<path d="M91.6358 64.2781H11.9526C5.33853 64.2781 0 69.6169 0 76.2307V124.041C0 130.655 5.33853 135.993 11.9526 135.993H91.6361C98.2502 135.993 103.589 130.655 103.589 124.041V76.2307C103.588 69.6169 98.2499 64.2781 91.6358 64.2781Z" fill="#FEA832"/>
<path d="M95.6202 43.826V51.7942C95.6202 54.0257 93.8673 55.7783 91.6361 55.7783H75.6994C73.4678 55.7783 71.7152 54.0255 71.7152 51.7942V43.826C71.7152 32.8297 62.7908 23.9052 51.7944 23.9052V0C75.9384 0 95.6202 19.6815 95.6202 43.826Z" fill="#AEADB3"/>
<path d="M103.589 76.2307V124.041C103.589 130.655 98.2501 135.993 91.6361 135.993H51.7944V64.2781H91.6361C98.2501 64.2781 103.589 69.6169 103.589 76.2307Z" fill="#FE8821"/>
<path d="M63.7469 92.1674C63.7469 97.3471 60.4006 101.729 55.7787 103.403V116.073C55.7787 118.703 53.7865 120.057 51.7946 120.057C49.8027 120.057 47.8105 118.702 47.8105 116.073V103.403C43.1886 101.729 39.8423 97.3471 39.8423 92.1674C39.8423 85.5533 45.1808 80.2148 51.7949 80.2148C58.4089 80.2148 63.7469 85.5536 63.7469 92.1674Z" fill="#787780"/>
<path d="M63.7468 92.1674C63.7468 97.3471 60.4004 101.729 55.7785 103.403V116.073C55.7785 118.703 53.7864 120.057 51.7944 120.057V80.2148C58.4082 80.2148 63.7468 85.5536 63.7468 92.1674Z" fill="#57555C"/>
</svg>
