<svg width="204" height="273" viewBox="0 0 204 273" fill="none" xmlns="http://www.w3.org/2000/svg">
<g clip-path="url(#clip0)">
<path d="M151.904 198.832L151.497 203.622C151.448 204.181 151.18 204.698 150.751 205.06C150.322 205.422 149.767 205.599 149.208 205.552L109.291 202.156C108.732 202.107 108.214 201.839 107.853 201.41C107.491 200.981 107.314 200.426 107.361 199.867L107.768 195.078C107.817 194.518 108.085 194.001 108.514 193.639C108.943 193.278 109.498 193.101 110.057 193.148L149.974 196.544C150.534 196.592 151.051 196.86 151.413 197.289C151.774 197.718 151.951 198.273 151.904 198.832Z" fill="#5FA2FF"/>
<path d="M159.86 222.194L155.439 224.08C154.365 224.538 153.26 224.368 152.976 223.702L143.211 200.814C142.926 200.147 143.568 199.232 144.642 198.774L149.063 196.888C150.137 196.43 151.242 196.6 151.526 197.267L161.291 220.154C161.576 220.821 160.934 221.736 159.86 222.194Z" fill="#5FA2FF"/>
<path d="M136.455 214.779H61.5872C62.4495 208.538 61.3859 202.183 58.5388 196.563C55.6916 190.942 51.1966 186.325 45.6547 183.329C40.1128 180.332 33.7881 179.099 27.5264 179.794C21.2647 180.489 15.3644 183.079 10.6143 187.218C5.86432 191.357 2.49101 196.847 0.945447 202.954C-0.600114 209.062 -0.244257 215.496 1.96543 221.396C4.17512 227.296 8.13333 232.381 13.3108 235.97C18.4883 239.56 24.6382 241.483 30.9384 241.484C34.7233 241.487 38.4767 240.795 42.0111 239.441V269.491C42.0111 270.182 42.2856 270.845 42.7742 271.333C43.2628 271.822 43.9254 272.096 44.6164 272.096H136.455C137.146 272.096 137.808 271.822 138.297 271.333C138.785 270.845 139.06 270.182 139.06 269.491V217.384C139.06 216.693 138.785 216.031 138.297 215.542C137.808 215.053 137.146 214.779 136.455 214.779Z" fill="#E6E6E6"/>
<path d="M141.991 265.257H50.1527C49.3756 265.257 48.6306 264.947 48.0811 264.398C47.5316 263.848 47.2226 263.103 47.2217 262.326V210.22C47.2226 209.442 47.5316 208.697 48.0811 208.148C48.6306 207.599 49.3756 207.289 50.1527 207.289H141.991C142.768 207.289 143.513 207.599 144.062 208.148C144.612 208.697 144.921 209.442 144.922 210.22V262.326C144.921 263.103 144.612 263.848 144.062 264.398C143.513 264.947 142.768 265.257 141.991 265.257ZM50.1527 207.94C49.5483 207.941 48.9689 208.181 48.5415 208.608C48.1141 209.036 47.8737 209.615 47.873 210.22V262.326C47.8737 262.931 48.1141 263.51 48.5415 263.938C48.9689 264.365 49.5483 264.605 50.1527 264.606H141.991C142.595 264.605 143.175 264.365 143.602 263.938C144.029 263.51 144.27 262.931 144.271 262.326V210.22C144.27 209.615 144.029 209.036 143.602 208.608C143.175 208.181 142.595 207.941 141.991 207.94H50.1527Z" fill="#3F3D56"/>
<path d="M142.134 202.415L141.727 207.204C141.678 207.763 141.41 208.28 140.981 208.642C140.552 209.004 139.997 209.181 139.438 209.134L99.5207 205.738C98.9616 205.69 98.4444 205.422 98.0826 204.993C97.7208 204.564 97.544 204.009 97.5909 203.449L97.9984 198.66C98.0466 198.101 98.3146 197.584 98.7437 197.222C99.1728 196.86 99.7278 196.683 100.287 196.73L140.204 200.126C140.764 200.174 141.281 200.442 141.642 200.871C142.004 201.3 142.181 201.855 142.134 202.415Z" fill="#5FA2FF"/>
<path d="M150.09 225.776L145.669 227.663C144.595 228.121 143.49 227.951 143.206 227.284L133.441 204.397C133.156 203.73 133.798 202.815 134.872 202.357L139.293 200.47C140.367 200.012 141.472 200.182 141.756 200.849L151.521 223.736C151.806 224.403 151.164 225.318 150.09 225.776Z" fill="#5FA2FF"/>
<path d="M203.542 264.606H0.325684V265.257H203.542V264.606Z" fill="#3F3D56"/>
<path d="M35.1722 233.342C28.9887 233.342 22.9441 231.508 17.8028 228.073C12.6614 224.638 8.65423 219.755 6.28793 214.042C3.92163 208.329 3.30249 202.043 4.50883 195.979C5.71516 189.914 8.69277 184.343 13.0651 179.971C17.4375 175.598 23.0082 172.621 29.0728 171.415C35.1375 170.208 41.4236 170.827 47.1364 173.194C52.8492 175.56 57.7319 179.567 61.1673 184.708C64.6026 189.85 66.4362 195.894 66.4362 202.078C66.4268 210.367 63.13 218.313 57.2688 224.175C51.4077 230.036 43.461 233.333 35.1722 233.342ZM35.1722 171.465C29.1175 171.465 23.1989 173.261 18.1646 176.624C13.1304 179.988 9.20669 184.769 6.88969 190.363C4.57268 195.957 3.96645 202.112 5.14765 208.05C6.32885 213.988 9.24443 219.443 13.5257 223.724C17.807 228.006 23.2616 230.921 29.1999 232.102C35.1382 233.284 41.2934 232.677 46.8871 230.36C52.4809 228.043 57.2619 224.12 60.6257 219.085C63.9895 214.051 65.7849 208.133 65.7849 202.078C65.7757 193.962 62.5475 186.181 56.8085 180.442C51.0695 174.703 43.2883 171.474 35.1722 171.465Z" fill="#3F3D56"/>
<path d="M103.048 155.68C112.674 155.68 120.478 147.877 120.478 138.251C120.478 128.625 112.674 120.821 103.048 120.821C93.4221 120.821 85.6187 128.625 85.6187 138.251C85.6187 147.877 93.4221 155.68 103.048 155.68Z" fill="#5FA2FF"/>
<path d="M105.613 144.71L105.595 144.059C106.806 144.025 107.875 143.949 108.677 143.363C108.905 143.187 109.092 142.965 109.226 142.71C109.36 142.456 109.437 142.175 109.453 141.888C109.467 141.713 109.441 141.537 109.375 141.373C109.31 141.21 109.208 141.063 109.078 140.946C108.545 140.496 107.687 140.641 107.062 140.928L106.523 141.175L107.557 133.623L108.202 133.711L107.323 140.135C108.172 139.886 108.959 139.993 109.498 140.448C109.705 140.629 109.867 140.855 109.972 141.109C110.077 141.362 110.122 141.637 110.104 141.911C110.085 142.297 109.982 142.674 109.802 143.015C109.622 143.357 109.369 143.655 109.062 143.889C108.03 144.643 106.69 144.68 105.613 144.71Z" fill="#2F2E41"/>
<path d="M114.901 134.265H111.394V134.916H114.901V134.265Z" fill="#2F2E41"/>
<path d="M103.829 134.265H100.321V134.916H103.829V134.265Z" fill="#2F2E41"/>
<path d="M127.987 208.103H86.9531C86.5645 208.102 86.192 207.948 85.9173 207.673C85.6425 207.398 85.488 207.026 85.4875 206.637V173.673C85.4921 169.677 87.0814 165.846 89.9069 163.021C92.7324 160.195 96.5634 158.606 100.559 158.601H113.983C114.368 158.602 114.737 158.753 115.011 159.022C115.285 159.292 115.442 159.658 115.449 160.042L129.453 206.613V206.637C129.452 207.026 129.298 207.398 129.023 207.673C128.748 207.948 128.376 208.102 127.987 208.103Z" fill="#2F2E41"/>
<path d="M100.73 171.939L105.536 171.977C106.097 171.982 106.634 172.209 107.027 172.609C107.421 173.009 107.64 173.549 107.636 174.11L107.322 214.17C107.317 214.732 107.089 215.268 106.689 215.662C106.289 216.055 105.749 216.274 105.188 216.271L100.382 216.233C99.8205 216.228 99.2842 216 98.8905 215.6C98.4968 215.2 98.2778 214.661 98.2815 214.099L98.5963 174.039C98.6014 173.478 98.8288 172.942 99.2288 172.548C99.6287 172.154 100.169 171.935 100.73 171.939Z" fill="#5FA2FF"/>
<path d="M95.9089 170.325C95.9089 168.425 96.6638 166.603 98.0074 165.259C99.3511 163.915 101.173 163.161 103.074 163.161C104.974 163.161 106.796 163.915 108.14 165.259C109.483 166.603 110.238 168.425 110.238 170.325V186.283H95.9089V170.325Z" fill="#2F2E41"/>
<path d="M97.8995 130.041C99.5503 128.343 101.948 128.051 104.205 128.236C106.622 128.434 108.912 129.236 111.282 129.683C113.62 130.123 116.155 130.321 118.39 129.345C119.422 128.882 120.316 128.159 120.986 127.247C121.655 126.335 122.076 125.265 122.208 124.141C122.496 121.782 121.885 119.401 120.496 117.472C118.966 115.309 116.791 113.725 114.531 112.395C109.658 109.529 104.225 107.02 98.524 106.557C93.3771 106.138 87.9193 107.561 84.2987 111.405C80.9047 115.008 79.4599 120.037 79.1594 124.879C78.776 131.06 80.2185 137.164 80.7405 143.293C81.1466 148.062 80.9945 153.787 77.1216 157.211C73.6959 160.241 68.4796 160.205 64.4407 158.55C59.6401 156.583 56.2715 152.168 53.7237 147.828C53.0751 146.723 52.4655 145.596 51.8742 144.46C51.5838 143.902 50.7404 144.395 51.0306 144.953C53.4149 149.535 56.1884 154.112 60.3591 157.287C64.0058 160.064 68.8715 161.401 73.3789 160.228C75.5643 159.682 77.5164 158.448 78.9472 156.709C80.492 154.784 81.3027 152.416 81.6409 149.993C82.0029 147.399 81.8767 144.786 81.6145 142.19C81.2988 139.064 80.7956 135.962 80.4509 132.84C79.8639 127.522 79.783 122.004 81.884 116.98C82.7897 114.74 84.1969 112.737 85.9976 111.125C87.9684 109.463 90.3329 108.336 92.8644 107.85C98.3875 106.704 104.002 108.256 109.002 110.594C111.525 111.722 113.94 113.077 116.218 114.643C118.236 116.088 120.116 117.98 120.893 120.392C121.563 122.471 121.507 124.933 120.171 126.745C118.744 128.683 116.27 129.167 114.001 129.05C109.342 128.81 104.647 126.103 99.9586 127.648C98.9176 127.985 97.9739 128.569 97.2086 129.351C96.7702 129.802 97.4603 130.493 97.8995 130.041Z" fill="#2F2E41"/>
<path d="M95.0532 93.2417C94.1768 90.4703 94.2074 87.4916 95.1406 84.7389C96.0739 81.9862 97.8611 79.603 100.242 77.936C94.0768 70.2214 90.8698 60.5583 91.199 50.6882C91.5282 40.8181 95.3722 31.3902 102.038 24.1036C108.704 16.817 117.753 12.1509 127.555 10.9464C137.357 9.74182 147.266 12.078 155.498 17.5338C163.73 22.9897 169.742 31.2064 172.451 40.7031C175.161 50.1998 174.389 60.3519 170.275 69.3297C166.161 78.3076 158.975 85.5207 150.013 89.6691C141.051 93.8176 130.902 94.6284 121.395 91.9556C120.763 94.896 119.178 97.5453 116.886 99.4919C114.593 101.439 111.722 102.573 108.718 102.72C105.714 102.867 102.746 102.017 100.275 100.303C97.8039 98.5889 95.9682 96.1065 95.0532 93.2417L95.0532 93.2417ZM101.263 78.0906L100.941 78.3023C98.0751 80.1899 96.0761 83.1386 95.3837 86.4999C94.6914 89.8613 95.3624 93.36 97.2493 96.2266C99.1362 99.0932 102.084 101.093 105.446 101.786C108.807 102.479 112.306 101.809 115.173 99.9229C116.629 98.9603 117.876 97.7144 118.84 96.2595C119.805 94.8046 120.466 93.1704 120.786 91.4544L120.855 91.0759L121.225 91.1834C130.578 93.9057 140.598 93.1859 149.467 89.1544C158.335 85.1228 165.465 78.0466 169.564 69.2089C173.663 60.3713 174.459 50.3574 171.808 40.9831C169.157 31.6089 163.234 23.4952 155.114 18.1132C146.993 12.7313 137.213 10.4376 127.547 11.648C117.88 12.8585 108.968 17.4929 102.425 24.7109C95.8828 31.929 92.1435 41.2526 91.8857 50.9911C91.6278 60.7296 94.8684 70.238 101.02 77.7922L101.263 78.0906Z" fill="#3F3D56"/>
<g opacity="0.6">
<path d="M150.551 42.1782C148.501 40.1287 145.776 39 142.878 39C139.98 39 137.255 40.1287 135.205 42.1782C133.38 44.0038 132.263 46.4248 132.061 48.9953C131.876 51.3551 132.467 53.7113 133.73 55.6893L114.955 74.4638C114.043 75.3763 114.043 76.8611 114.955 77.7737C115.397 78.2156 115.985 78.4592 116.61 78.4592C117.236 78.4592 117.823 78.2157 118.265 77.7737L120.282 75.7567L122.84 78.3145C123.282 78.7564 123.87 79 124.495 79C125.12 79 125.708 78.7565 126.15 78.3144C127.062 77.4018 127.062 75.917 126.15 75.0045L124.796 73.6505L126.3 72.146L127.654 73.4999C128.096 73.942 128.684 74.1856 129.309 74.1856C129.934 74.1856 130.522 73.9421 130.964 73.5C131.406 73.0581 131.65 72.4702 131.65 71.8451C131.65 71.2199 131.406 70.6321 130.964 70.1901L128.406 67.6325L137.039 58.9993C138.781 60.1146 140.788 60.7014 142.879 60.7016C145.777 60.7015 148.501 59.573 150.551 57.5238C152.6 55.4743 153.729 52.7493 153.729 49.851C153.729 46.9526 152.6 44.2277 150.551 42.1782ZM149.648 56.6211C147.84 58.4294 145.436 59.425 142.88 59.425C140.873 59.4249 138.955 58.8132 137.331 57.6559C137.077 57.475 136.73 57.5039 136.509 57.7243L127.052 67.1812C126.933 67.301 126.865 67.4632 126.865 67.6326C126.865 67.802 126.933 67.9642 127.052 68.084L130.061 71.0929C130.262 71.2938 130.373 71.561 130.373 71.8452C130.373 72.1293 130.262 72.3965 130.061 72.5974C129.86 72.7984 129.593 72.909 129.309 72.909C129.025 72.909 128.758 72.7984 128.557 72.5974L126.751 70.792C126.502 70.5428 126.098 70.5428 125.849 70.792L123.441 73.1991C123.192 73.4484 123.192 73.8525 123.441 74.1018L125.247 75.9073C125.662 76.322 125.662 76.997 125.247 77.4117C125.046 77.6127 124.779 77.7234 124.495 77.7234C124.211 77.7234 123.943 77.6127 123.742 77.4117L120.734 74.4027C120.609 74.2781 120.446 74.2159 120.282 74.2159C120.119 74.2159 119.955 74.2781 119.831 74.4027L117.363 76.871C117.162 77.072 116.894 77.1827 116.61 77.1827C116.326 77.1827 116.059 77.072 115.858 76.871C115.443 76.4563 115.443 75.7813 115.858 75.3666L135.005 56.2199C135.225 55.9993 135.254 55.652 135.073 55.3981C132.353 51.5808 132.788 46.4007 136.108 43.0808C137.916 41.2724 140.321 40.2766 142.878 40.2766C145.436 40.2766 147.84 41.2725 149.648 43.0809C151.457 44.8893 152.453 47.2936 152.453 49.851C152.453 52.4085 151.457 54.8128 149.648 56.6211Z" fill="#202020"/>
<path d="M149.706 49.4927C149.354 49.4775 149.056 49.7523 149.042 50.1044C148.979 51.6563 148.339 53.1158 147.241 54.2139C146.076 55.3794 144.526 56.0212 142.878 56.0212C141.23 56.0212 139.681 55.3794 138.515 54.2139C136.109 51.8082 136.109 47.8938 138.515 45.4881C139.681 44.3225 141.23 43.6807 142.878 43.6807C144.526 43.6807 146.076 44.3225 147.241 45.488C147.898 46.1452 148.388 46.9196 148.695 47.79C148.813 48.1223 149.177 48.2965 149.51 48.1791C149.842 48.0616 150.016 47.697 149.899 47.3646C149.527 46.3132 148.937 45.3782 148.144 44.5854C146.737 43.1789 144.867 42.4043 142.878 42.4043C140.889 42.4043 139.019 43.1789 137.612 44.5854C134.709 47.4889 134.709 52.2132 137.612 55.1167C139.019 56.5232 140.889 57.2978 142.878 57.2978C144.867 57.2978 146.737 56.5232 148.144 55.1167C149.469 53.7914 150.241 52.0299 150.318 50.1566C150.332 49.8043 150.058 49.5071 149.706 49.4927Z" fill="#202020"/>
</g>
</g>
<defs>
<clipPath id="clip0">
<rect width="203.542" height="272.096" fill="white"/>
</clipPath>
</defs>
</svg>
