<svg width="200" height="146" viewBox="0 0 200 146" fill="none" xmlns="http://www.w3.org/2000/svg">
<g clip-path="url(#clip0)">
<path opacity="0.1" d="M186.715 69.394C186.826 68.1238 186.884 66.833 186.884 65.5291C186.884 45.1107 173.03 28.5572 155.942 28.5572C150.501 28.5572 145.371 30.2458 140.932 33.2008C128.837 23.8199 113.045 18.152 95.7692 18.152C67.6585 18.152 43.4784 33.1745 32.7505 54.7186C32.1557 54.6773 31.5553 54.6548 30.9493 54.6548C13.8518 54.6548 0 71.2064 0 91.6248C0 99.1295 1.87617 106.114 5.09193 111.946C5.09193 130.315 19.8105 145.212 37.9662 145.212H60.8555L60.9568 145.038C62.3021 142.854 65.5235 142.308 67.7674 143.548C68.3602 143.874 68.9118 144.298 69.5741 144.448C72.2251 145.011 74.0056 140.747 76.6886 141.161C78.0356 141.37 79.0863 142.762 80.4409 142.619C81.3396 142.523 82.0206 141.771 82.8649 141.452C84.2176 140.938 85.5891 141.651 86.5366 142.809C87.0863 141.227 87.0826 139.353 87.9719 137.902C89.3171 135.719 92.5385 135.173 94.7824 136.413C95.3752 136.739 95.9268 137.163 96.5891 137.313C99.2402 137.876 101.021 133.612 103.704 134.026C105.051 134.235 106.101 135.627 107.456 135.484C108.355 135.388 109.036 134.636 109.88 134.317C111.985 133.516 114.141 135.69 114.659 137.882C114.859 138.847 114.965 139.83 114.976 140.816C116.792 139.936 118.326 137.462 120.4 137.782C121.747 137.991 122.797 139.383 124.152 139.24C125.051 139.144 125.732 138.392 126.576 138.073C128.681 137.272 130.837 139.447 131.355 141.638C131.63 142.801 131.649 144.009 131.696 145.203H169.623C183.882 145.203 195.435 133.51 195.435 119.086C198.328 113.458 200 106.839 200 99.7505C200 87.1801 194.747 76.0732 186.715 69.394Z" fill="#5FA2FF"/>
<path d="M116.885 49.9062C125.9 49.9062 133.208 42.5983 133.208 33.5835C133.208 24.5687 125.9 17.2608 116.885 17.2608C107.871 17.2608 100.563 24.5687 100.563 33.5835C100.563 42.5983 107.871 49.9062 116.885 49.9062Z" fill="#5FA2FF"/>
<path d="M111.63 34.1989L116.859 28.97L122.141 34.1989H118.552V38.197H115.219V34.2251L111.63 34.1989Z" fill="white"/>
<path d="M138.372 75.272C138.151 74.1339 137.581 73.0928 136.741 72.2933C135.902 71.4938 134.834 70.9756 133.687 70.8105C132.539 70.6455 131.369 70.8419 130.338 71.3724C129.307 71.903 128.467 72.7413 127.934 73.7711C126.798 73.8949 125.753 74.4494 125.013 75.3205C124.273 76.1917 123.896 77.3132 123.958 78.4544C124.02 79.5956 124.517 80.6696 125.346 81.4555C126.176 82.2413 127.276 82.6793 128.418 82.6792H138.111C139.097 82.6762 140.042 82.2838 140.74 81.5873C141.438 80.8909 141.833 79.9468 141.839 78.9606C141.842 78.019 141.485 77.1118 140.84 76.4257C140.195 75.7396 139.312 75.3267 138.372 75.272ZM134.084 77.4709V80.2964H131.707V77.4634H129.165L132.893 73.7355L136.619 77.4634L134.084 77.4709Z" fill="white"/>
<path d="M166.889 121.613C166.669 120.475 166.099 119.434 165.259 118.635C164.42 117.835 163.352 117.317 162.204 117.152C161.057 116.987 159.886 117.183 158.856 117.714C157.825 118.244 156.985 119.083 156.452 120.113C155.316 120.236 154.271 120.791 153.531 121.662C152.791 122.533 152.413 123.655 152.475 124.796C152.537 125.937 153.034 127.011 153.864 127.797C154.694 128.583 155.793 129.021 156.936 129.021H166.629C167.615 129.018 168.56 128.625 169.258 127.929C169.956 127.232 170.351 126.288 170.357 125.302C170.36 124.36 170.003 123.453 169.358 122.767C168.713 122.081 167.829 121.668 166.889 121.613ZM162.602 123.812V126.638H160.225V123.805H157.683L161.411 120.077L165.137 123.805L162.602 123.812Z" fill="white"/>
<path d="M61.8105 88.1763C61.4658 86.4186 60.5828 84.8117 59.2839 83.5783C57.985 82.345 56.3345 81.5463 54.5613 81.2932C52.7881 81.04 50.9801 81.3447 49.3879 82.1653C47.7957 82.9858 46.4982 84.2814 45.6754 85.8724C43.9205 86.0652 42.306 86.9229 41.164 88.2693C40.0219 89.6156 39.439 91.3484 39.5351 93.1112C39.6312 94.8741 40.399 96.5332 41.6806 97.7475C42.9623 98.9617 44.6604 99.6389 46.4259 99.6397H61.4071C62.9338 99.6348 64.3966 99.0259 65.4758 97.9459C66.555 96.866 67.163 95.4029 67.1669 93.8762C67.1719 92.4215 66.6195 91.0201 65.6232 89.9601C64.627 88.9 63.2627 88.2617 61.8105 88.1763ZM55.1857 91.5722V95.9512H51.499V91.5722H47.5816L53.3433 85.8124L59.0994 91.5722H55.1857Z" fill="white"/>
<path d="M126.267 103.186V98.6266L128.368 100.728L128.893 100.184L125.891 97.182L122.889 100.184L123.415 100.709L125.516 98.6266V103.186H126.267Z" fill="white"/>
<path d="M21.3883 109.377V104.818L23.4897 106.919L24.015 106.375L21.0131 103.373L18.0112 106.375L18.5366 106.901L20.6379 104.818V109.377H21.3883Z" fill="white"/>
<path d="M126.079 60.2214V56.8049L127.655 58.3809L128.049 57.9737L125.797 55.7223L123.546 57.9737L123.94 58.3677L125.516 56.8049V60.2214H126.079Z" fill="white"/>
<path d="M84.9906 35.4559V32.0394L86.5666 33.6154L86.9606 33.2083L84.7092 30.9568L82.4578 33.2083L82.8518 33.6022L84.4277 32.0394V35.4559H84.9906Z" fill="white"/>
<path d="M69.6061 69.227V65.8105L71.1821 67.3865L71.5761 66.9794L69.3246 64.728L67.0732 66.9794L67.4672 67.3734L69.0432 65.8105V69.227H69.6061Z" fill="white"/>
<path d="M166.041 84.9869V81.5703L167.617 83.1463L168.011 82.7392L165.76 80.4878L163.509 82.7392L163.903 83.1332L165.479 81.5703V84.9869H166.041Z" fill="white"/>
<path d="M66.2289 115.193V111.777L67.8049 113.353L68.1988 112.946L65.9474 110.694L63.696 112.946L64.09 113.34L65.666 111.777V115.193H66.2289Z" fill="white"/>
<path d="M148.03 56.0976C148.652 56.0976 149.156 55.5936 149.156 54.9719C149.156 54.3502 148.652 53.8462 148.03 53.8462C147.408 53.8462 146.904 54.3502 146.904 54.9719C146.904 55.5936 147.408 56.0976 148.03 56.0976Z" fill="white"/>
<path d="M42.0263 53.0957C42.648 53.0957 43.152 52.5917 43.152 51.97C43.152 51.3483 42.648 50.8443 42.0263 50.8443C41.4046 50.8443 40.9006 51.3483 40.9006 51.97C40.9006 52.5917 41.4046 53.0957 42.0263 53.0957Z" fill="white"/>
<path d="M75.2346 81.6135C75.8563 81.6135 76.3603 81.1095 76.3603 80.4878C76.3603 79.8661 75.8563 79.3621 75.2346 79.3621C74.6129 79.3621 74.1089 79.8661 74.1089 80.4878C74.1089 81.1095 74.6129 81.6135 75.2346 81.6135Z" fill="white"/>
<path d="M173.546 100.188C173.857 100.188 174.109 99.9356 174.109 99.6248C174.109 99.3139 173.857 99.0619 173.546 99.0619C173.235 99.0619 172.983 99.3139 172.983 99.6248C172.983 99.9356 173.235 100.188 173.546 100.188Z" fill="white"/>
<path d="M131.332 115.76C131.643 115.76 131.895 115.508 131.895 115.197C131.895 114.886 131.643 114.634 131.332 114.634C131.021 114.634 130.769 114.886 130.769 115.197C130.769 115.508 131.021 115.76 131.332 115.76Z" fill="white"/>
<path d="M59.0995 128.893C59.4103 128.893 59.6623 128.641 59.6623 128.33C59.6623 128.019 59.4103 127.767 59.0995 127.767C58.7886 127.767 58.5366 128.019 58.5366 128.33C58.5366 128.641 58.7886 128.893 59.0995 128.893Z" fill="white"/>
<path d="M18.0113 83.302C18.3222 83.302 18.5742 83.05 18.5742 82.7392C18.5742 82.4284 18.3222 82.1764 18.0113 82.1764C17.7005 82.1764 17.4485 82.4284 17.4485 82.7392C17.4485 83.05 17.7005 83.302 18.0113 83.302Z" fill="white"/>
<path d="M23.4523 71.2946C23.7631 71.2946 24.0151 71.0426 24.0151 70.7317C24.0151 70.4209 23.7631 70.1689 23.4523 70.1689C23.1414 70.1689 22.8894 70.4209 22.8894 70.7317C22.8894 71.0426 23.1414 71.2946 23.4523 71.2946Z" fill="white"/>
<path d="M144.465 134.334C144.776 134.334 145.028 134.082 145.028 133.771C145.028 133.46 144.776 133.208 144.465 133.208C144.154 133.208 143.902 133.46 143.902 133.771C143.902 134.082 144.154 134.334 144.465 134.334Z" fill="white"/>
<path d="M40.3378 114.822C40.6486 114.822 40.9006 114.57 40.9006 114.259C40.9006 113.948 40.6486 113.696 40.3378 113.696C40.0269 113.696 39.7749 113.948 39.7749 114.259C39.7749 114.57 40.0269 114.822 40.3378 114.822Z" fill="white"/>
<path d="M53.2833 63.227C53.5942 63.227 53.8462 62.975 53.8462 62.6642C53.8462 62.3533 53.5942 62.1013 53.2833 62.1013C52.9725 62.1013 52.7205 62.3533 52.7205 62.6642C52.7205 62.975 52.9725 63.227 53.2833 63.227Z" fill="white"/>
<path d="M72.5141 42.6829H69.6061V39.7749H69.2308V42.6829H66.3228V43.0582H69.2308V45.9662H69.6061V43.0582H72.5141V42.6829Z" fill="white"/>
<path d="M143.339 96.4146H141.578V94.6529H141.349V96.4146H139.587V96.6435H141.349V98.4053H141.578V96.6435H143.339V96.4146Z" fill="white"/>
<path d="M132.645 129.248H130.884V127.486H130.655V129.248H128.893V129.477H130.655V131.238H130.884V129.477H132.645V129.248Z" fill="white"/>
<path d="M45.0282 125.12H43.2665V123.358H43.0376V125.12H41.2759V125.349H43.0376V127.111H43.2665V125.349H45.0282V125.12Z" fill="white"/>
<path d="M32.6454 92.0994H30.8837V90.3377H30.6548V92.0994H28.8931V92.3283H30.6548V94.09H30.8837V92.3283H32.6454V92.0994Z" fill="white"/>
<path d="M85.0768 125.644L85.09 124.587L84.4558 124.58L84.4427 125.636L83.3489 128.795L86.0956 128.827L85.0768 125.644Z" fill="#3F3D56"/>
<path d="M87.833 125.704L87.8462 124.621L87.1951 124.612L87.182 125.696L86.0601 128.936L88.8781 128.968L87.833 125.704Z" fill="#3F3D56"/>
<path d="M90.5722 125.709L90.5853 124.653L89.9512 124.645L89.938 125.702L88.8442 128.861L91.5928 128.893L90.5722 125.709Z" fill="#3F3D56"/>
<path d="M110.163 125.97L110.176 124.886L109.525 124.878L109.512 125.962L108.39 129.201L111.208 129.235L110.163 125.97Z" fill="#3F3D56"/>
<path d="M112.981 126.004L112.994 124.919L112.343 124.912L112.33 125.996L111.208 129.235L114.026 129.268L112.981 126.004Z" fill="#3F3D56"/>
<path d="M115.799 126.038L115.812 124.953L115.161 124.946L115.148 126.03L114.026 129.268L116.844 129.302L115.799 126.038Z" fill="#3F3D56"/>
<path d="M97.3714 125.818L97.3845 124.734L96.7335 124.726L96.7204 125.811L95.5984 129.049L98.4164 129.083L97.3714 125.818Z" fill="#3F3D56"/>
<path d="M100.189 125.852L100.203 124.767L99.5535 124.76L99.5403 125.844L98.4165 129.083L101.235 129.116L100.189 125.852Z" fill="#3F3D56"/>
<path d="M103.007 125.886L103.02 124.801L102.371 124.794L102.358 125.878L101.234 129.116L104.054 129.15L103.007 125.886Z" fill="#3F3D56"/>
<path d="M95.4522 50.015C95.4128 46.2814 91.0151 39.6623 88.6417 39.6341C86.2684 39.606 81.9288 46.1201 81.8012 49.8518H81.6886L80.7937 124.863L94.5611 125.026L95.456 50.0169L95.4522 50.015Z" fill="#3F3D56"/>
<path d="M120.601 50.3152C120.561 46.5816 116.163 39.9625 113.79 39.9344C111.417 39.9062 107.077 46.4203 106.951 50.152H106.839L105.944 125.163L119.711 125.326L120.606 50.3171L120.601 50.3152Z" fill="#3F3D56"/>
<path d="M108.229 15.182C108.208 9.70916 103.846 0.0281129 101.475 -2.96607e-05C99.1031 -0.0281722 94.7203 9.54781 94.5759 15.0094H94.4652L93.1519 124.998L106.917 125.163L108.231 15.1726L108.229 15.182Z" fill="#2F2E41"/>
<path d="M95.5217 74.1895L100.753 68.9587L106.032 74.1895H102.445V78.1876H99.1109V74.2139L95.5217 74.1895Z" fill="#5FA2FF"/>
<g opacity="0.1">
<path opacity="0.1" d="M107.855 51.5797C109.279 48.257 112.06 44.7917 113.79 44.8124C116.041 44.8387 120.097 50.7767 120.557 54.5685L120.606 50.4953C120.567 46.7617 116.169 40.1426 113.795 40.1144C112.088 40.0938 109.36 43.469 107.919 46.7523L107.855 51.5797Z" fill="black"/>
<path opacity="0.1" d="M81.6904 54.728H81.803C81.9287 50.9963 86.2702 44.4822 88.6417 44.5103C90.1914 44.5291 92.6023 47.3565 94.1013 50.3565L94.4653 19.8949H94.576C94.7223 14.424 99.1032 4.84804 101.475 4.88556C103.715 4.91183 107.734 13.5554 108.188 19.1257L108.231 15.3734C108.21 9.90057 103.848 0.219519 101.477 0.191377C99.1051 0.163234 94.7223 9.73922 94.5779 15.2101H94.4672L94.1032 45.6717C92.6023 42.6698 90.1932 39.8443 88.6435 39.8255C86.272 39.7974 81.9306 46.3115 81.8049 50.0432H81.6923L80.7974 125.054H80.8537L81.6904 54.728Z" fill="black"/>
</g>
<path d="M101.474 4.76277L101.472 4.76275C100.754 4.75422 100.165 5.32939 100.157 6.04741L100.121 9.08472C100.112 9.80274 100.688 10.3917 101.406 10.4002L101.407 10.4003C102.125 10.4088 102.714 9.83363 102.723 9.1156L102.759 6.07829C102.768 5.36027 102.192 4.77129 101.474 4.76277Z" fill="#ECECF3"/>
</g>
<defs>
<clipPath id="clip0">
<rect width="200" height="145.208" fill="white"/>
</clipPath>
</defs>
</svg>
